<?xml version="1.0" encoding="UTF-8"?>
<svg width="1200pt" height="1200pt" version="1.1" viewBox="0 0 1200 1200" xmlns="http://www.w3.org/2000/svg">
 <path d="m1138.3 563.53-175.86-304.62c-3.5664-6.1719-11.461-8.2852-17.637-4.7266l-108.64 62.723c-2.9648 1.7148-5.125 4.5312-6.0117 7.8398-0.88281 3.3047-0.41797 6.8281 1.293 9.7891l9.6836 16.801-52.922 30.336c-33.336 12.086-58.43 6.9102-96.227-0.86328-18.098-3.7188-38.617-7.9453-63.684-11.004h0.003907c-35.879-4.5898-71.984 6.6289-98.941 30.742l-93.926-14.219c-19.992-2.7891-39.02-10.352-55.473-22.043l-5.293-3.6602 11.594-16.801h-0.003906c1.957-2.8242 2.707-6.3125 2.0859-9.6914-0.625-3.3789-2.5703-6.3711-5.4102-8.3086l-103.37-71.062c-2.8203-1.9648-6.3086-2.7188-9.6875-2.0938-3.3828 0.62109-6.375 2.5664-8.3125 5.4023l-199.25 289.82c-1.9531 2.8281-2.6992 6.3125-2.0742 9.6914 0.62109 3.3789 2.5664 6.3672 5.3984 8.3086l103.37 71.062v0.003907c2.8242 1.9609 6.3125 2.7109 9.6914 2.0859 3.3789-0.62109 6.3711-2.5703 8.3086-5.4102l9.3828-13.645c16.895 12.574 32.34 24.48 46.801 36.07l-12 16.98c-7.8242 11.047-11.32 24.586-9.8164 38.039s7.8984 25.887 17.969 34.934c10.074 9.0469 23.117 14.078 36.656 14.137 0.79297 0 1.5859 0 2.3984-0.097656-2.3164 10.539-1.4609 21.527 2.4492 31.582 3.9141 10.055 10.715 18.727 19.547 24.926 9.3281 6.5547 20.453 10.059 31.848 10.035 2.4688-0.007812 4.9336-0.17578 7.3828-0.50391-0.44531 4.8008-0.26172 9.6445 0.55078 14.398 2.1562 12.836 8.793 24.492 18.734 32.895 9.9375 8.4023 22.539 13.004 35.555 12.992 13.742 0.011719 26.996-5.082 37.199-14.289 4.0312 10.309 11.082 19.16 20.227 25.402 9.1406 6.2383 19.953 9.5781 31.023 9.5742 15.406 0.023438 30.121-6.3945 40.586-17.699l63.602 45.191h-0.003906c11.613 8.3633 25.531 12.914 39.84 13.035 17.594 0.4375 34.297-7.7266 44.762-21.879 7.3047-10.449 10.5-23.23 8.9766-35.891 5.8984 1.7148 12.012 2.6016 18.156 2.6289 17.59 0.44531 34.297-7.7188 44.746-21.879 7.5156-10.684 10.695-23.816 8.9062-36.754 5.3164 1.3672 10.781 2.0703 16.27 2.0859 17.594 0.45312 34.297-7.7148 44.75-21.875 6.7188-9.3203 10.336-20.523 10.332-32.016 7.6875 3.0078 15.863 4.5742 24.121 4.6211 3.3867 0.003906 6.7734-0.27734 10.113-0.83984 14.02-1.9922 26.594-9.6797 34.758-21.246 8.1641-11.57 11.195-25.996 8.3711-39.871-2.3672-12.809-8.5078-24.621-17.629-33.922 8.207-5.1016 15.469-10.234 22.559-15.266h0.003906c11.09-8.4102 22.969-15.723 35.469-21.84 0.34766-0.15625 0.70703-0.33594 1.043-0.52734l54.59-31.406 10.066 17.438h0.003906c1.707 2.9648 4.5273 5.1289 7.832 6.0156 3.3086 0.88672 6.832 0.42578 9.793-1.2891l108.64-62.723c6.1641-3.5703 8.2812-11.453 4.7305-17.629zm-965.29 44.797-82.094-56.398 184.66-268.61 82.094 56.398zm86.09 120.56h-0.003906c-6.3203-4.5312-10.594-11.375-11.891-19.047-1.2969-7.668 0.48828-15.539 4.9688-21.895l45.793-64.453c4.5-6.3516 11.359-10.637 19.043-11.891 1.6562-0.28906 3.3359-0.43359 5.0156-0.43359 7.1953 0.046875 14.121 2.7344 19.469 7.5469 5.3477 4.8164 8.7422 11.426 9.543 18.574 0.80078 7.1523-1.0508 14.348-5.2031 20.223l-45.793 64.453c-4.5352 6.3203-11.383 10.598-19.051 11.895-7.6719 1.2969-15.547-0.49219-21.906-4.9727zm56.016 66.492h-0.003907c-6.3008-4.4219-10.57-11.188-11.852-18.781s0.53516-15.387 5.0391-21.633l75.602-104.77h-0.003906c4.6172-6.3672 11.547-10.668 19.301-11.977s15.711 0.48047 22.16 4.9805c5.8438 4.1055 9.9531 10.234 11.531 17.199 1.582 6.9648 0.51562 14.27-2.9883 20.492l-19.344 27.109-57.984 80.398c-4.6172 6.3672-11.547 10.664-19.301 11.973-7.7539 1.3047-15.711-0.48438-22.16-4.9883zm62.316 59.734-0.003906 0.003906c-6.3125-4.5078-10.582-11.328-11.879-18.973-1.293-7.6484 0.49219-15.496 4.9688-21.828l64.871-91.031 17.711-24.551c0.88672-1.1992 1.7148-2.5078 2.4961-3.793l5.4258-7.6211c4.5391-6.3477 11.402-10.645 19.098-11.945 7.6953-1.3008 15.594 0.49609 21.965 4.9961 6.3086 4.5117 10.574 11.332 11.871 18.977 1.293 7.6445-0.48828 15.488-4.957 21.824l-19.547 27.422h-0.003906c-2.0977 2.125-4.0234 4.418-5.7578 6.8516l-45.793 64.453v-0.003906c-1.5586 2.1914-2.9531 4.4961-4.1758 6.8906l-15.238 21.383c-4.5391 6.3438-11.402 10.637-19.094 11.938-7.6914 1.3047-15.586-0.49219-21.961-4.9883zm88.453 20.676-0.003906 0.003906c-5.5078-3.9258-9.4961-9.6289-11.289-16.148-1.793-6.5195-1.2812-13.461 1.4492-19.648l52.98-74.398c4.1406-3.7305 9.2617-6.1992 14.758-7.1172 1.6602-0.27734 3.3359-0.41797 5.0195-0.42188 6.0508-0.007812 11.953 1.875 16.883 5.3906 6.3398 4.5156 10.633 11.359 11.934 19.035s-0.49609 15.555-5 21.906l-42.395 59.688-3.3594 4.7266v0.003906c-4.5078 6.3594-11.359 10.668-19.043 11.977-7.6875 1.3086-15.578-0.48437-21.938-4.9922zm405.69-126.07c-4.2969 5.7734-10.727 9.582-17.855 10.574-10.863 1.5391-21.898-1.2617-30.707-7.8008l-25.68-18.383-86.398-61.883-0.003906-0.003907c-5.793-4.1484-13.855-2.8125-18.004 2.9844-4.1484 5.793-2.8125 13.855 2.9805 18.004l86.508 61.957c7.6328 4.9688 13.031 12.719 15.051 21.602 1.4531 7.7812-0.375 15.82-5.0547 22.211-9.6016 13.43-31.812 14.688-48.613 2.7461l-75.836-53.805c-2.793-1.9844-6.2578-2.7734-9.6328-2.2031-3.375 0.57422-6.3828 2.4648-8.3633 5.2539-4.125 5.8125-2.7578 13.871 3.0547 17.996l56.016 39.828c8.2812 5.7031 14.277 14.152 16.918 23.855 2.293 7.7891 1.0078 16.195-3.5156 22.945-9.6016 13.43-31.801 14.688-48.602 2.7461l-21.719-15.434-29.004-20.605v0.003906c-5.8086-3.9453-13.711-2.5234-17.777 3.2031-4.0703 5.7266-2.8125 13.656 2.8281 17.844l29.004 20.605c16.801 12 22.945 33.371 13.402 46.801-9.5391 13.43-31.801 14.688-48.602 2.7461l-63.238-44.93 34.945-49.199c8.4688-11.934 11.855-26.738 9.4102-41.168-2.4414-14.43-10.516-27.297-22.441-35.773-8.2734-5.8984-18.027-9.3711-28.164-10.035 7.0742-11.902 9.4102-26.035 6.5391-39.586-2.8672-13.547-10.727-25.523-22.02-33.539-16.133-11.395-37.113-13.328-55.059-5.0781-3.0391-13.035-10.797-24.488-21.777-32.148-9.7148-6.75-21.312-10.25-33.141-10.008-11.824 0.24609-23.27 4.2305-32.691 11.379-3.6211-11.273-10.805-21.066-20.473-27.902-11.934-8.4727-26.738-11.859-41.168-9.418-14.43 2.4414-27.297 10.512-35.777 22.438l-18.758 26.398c-14.617-11.664-30.191-23.652-47.172-36.289l149.05-216.77 5.207 3.6016c19.711 13.922 42.441 22.969 66.324 26.398l74.484 11.281c-15.539 17.891-30.023 36.672-43.379 56.242-14.32 21.445-30.336 41.707-47.895 60.59-10.859 10.906-8.8555 28.465 4.957 43.691 12.688 16.238 31.648 26.355 52.199 27.852h0.82812c31.703 0 57.289-26.617 82.043-52.355 19.777-20.566 40.246-41.832 57.023-40.199h0.003906c10.766 5.0117 20.441 12.098 28.465 20.855 13.312 13.355 28.793 24.363 45.777 32.555l171.76 130.29 0.45703 0.33594c9.0195 6.0469 15.273 15.426 17.387 26.078 1.4531 7.1445-0.023437 14.578-4.1055 20.625zm58.633-119.34c-13.77 6.7383-26.867 14.773-39.109 24-9.3555 6.8633-19.074 13.223-29.109 19.047l-104.07-78.926h-0.003906c17.453 2.875 35.32 1.9961 52.406-2.5781 6.7734-2.207 10.48-9.4922 8.2734-16.27-2.207-6.7734-9.4922-10.48-16.266-8.2734-23.496 7.6562-67.043 0.44531-103.27-17.363-0.44531-0.23828-0.88672-0.45703-1.3438-0.64844-14.375-6.9219-27.484-16.207-38.785-27.469-0.26562-0.26562-25.969-26.844-44.473-28.656-29.34-2.8672-54.203 22.98-78.254 48-21.012 21.852-42.719 44.398-63.469 44.398h-0.40625l0.003906 0.003907c-13.371-1.5156-25.5-8.5391-33.469-19.379-2.4141-2.457-4.1875-5.4688-5.1602-8.7734 18.297-19.727 35.016-40.859 50.004-63.203 16.629-25.453 35.969-49.02 57.684-70.297l0.12109-0.10938c22.082-21.754 52.879-32.246 83.652-28.5 24 2.9414 43.992 7.043 61.621 10.668 39.445 8.125 70.609 14.531 111.38-0.57422 0.66406-0.25 1.3125-0.55078 1.9297-0.90234l53.93-30.926 130.31 225.71zm93-15.312-162.96-282.26 86.27-49.812 162.97 282.27z"/>
</svg>
